<mxfile host="app.diagrams.net" agent="Mozilla/5.0 (Windows NT 10.0; Win64; x64) AppleWebKit/537.36 (KHTML, like Gecko) Chrome/141.0.0.0 Safari/537.36" version="28.2.7">
  <diagram name="Página-1" id="-WvQTtgj3mwJqE1qRFFZ">
    <mxGraphModel dx="1519" dy="776" grid="1" gridSize="10" guides="1" tooltips="1" connect="1" arrows="1" fold="1" page="1" pageScale="1" pageWidth="827" pageHeight="1169" math="0" shadow="0">
      <root>
        <mxCell id="0" />
        <mxCell id="1" parent="0" />
        <mxCell id="udtHZClJvaYIcNbsqlSm-11" style="edgeStyle=orthogonalEdgeStyle;rounded=0;orthogonalLoop=1;jettySize=auto;html=1;" edge="1" parent="1" source="udtHZClJvaYIcNbsqlSm-1" target="udtHZClJvaYIcNbsqlSm-6">
          <mxGeometry relative="1" as="geometry" />
        </mxCell>
        <mxCell id="udtHZClJvaYIcNbsqlSm-1" value="Oficial de Competição" style="shape=umlActor;verticalLabelPosition=bottom;verticalAlign=top;html=1;outlineConnect=0;" vertex="1" parent="1">
          <mxGeometry x="10" y="220" width="30" height="60" as="geometry" />
        </mxCell>
        <mxCell id="udtHZClJvaYIcNbsqlSm-14" style="edgeStyle=orthogonalEdgeStyle;rounded=0;orthogonalLoop=1;jettySize=auto;html=1;" edge="1" parent="1" source="udtHZClJvaYIcNbsqlSm-3" target="udtHZClJvaYIcNbsqlSm-7">
          <mxGeometry relative="1" as="geometry" />
        </mxCell>
        <mxCell id="udtHZClJvaYIcNbsqlSm-16" style="edgeStyle=orthogonalEdgeStyle;rounded=0;orthogonalLoop=1;jettySize=auto;html=1;entryX=0;entryY=0.5;entryDx=0;entryDy=0;" edge="1" parent="1" source="udtHZClJvaYIcNbsqlSm-3" target="udtHZClJvaYIcNbsqlSm-8">
          <mxGeometry relative="1" as="geometry" />
        </mxCell>
        <mxCell id="udtHZClJvaYIcNbsqlSm-17" style="edgeStyle=orthogonalEdgeStyle;rounded=0;orthogonalLoop=1;jettySize=auto;html=1;entryX=0;entryY=0.5;entryDx=0;entryDy=0;" edge="1" parent="1" source="udtHZClJvaYIcNbsqlSm-3" target="udtHZClJvaYIcNbsqlSm-10">
          <mxGeometry relative="1" as="geometry">
            <mxPoint x="150" y="544.5" as="targetPoint" />
          </mxGeometry>
        </mxCell>
        <mxCell id="udtHZClJvaYIcNbsqlSm-3" value="Administrador SGO" style="shape=umlActor;verticalLabelPosition=bottom;verticalAlign=top;html=1;outlineConnect=0;" vertex="1" parent="1">
          <mxGeometry x="10" y="330" width="30" height="60" as="geometry" />
        </mxCell>
        <mxCell id="udtHZClJvaYIcNbsqlSm-19" style="edgeStyle=orthogonalEdgeStyle;rounded=0;orthogonalLoop=1;jettySize=auto;html=1;entryX=0;entryY=0.5;entryDx=0;entryDy=0;" edge="1" parent="1" source="udtHZClJvaYIcNbsqlSm-4" target="udtHZClJvaYIcNbsqlSm-18">
          <mxGeometry relative="1" as="geometry" />
        </mxCell>
        <mxCell id="udtHZClJvaYIcNbsqlSm-4" value="Atleta" style="shape=umlActor;verticalLabelPosition=bottom;verticalAlign=top;html=1;outlineConnect=0;" vertex="1" parent="1">
          <mxGeometry x="10" y="640" width="30" height="60" as="geometry" />
        </mxCell>
        <mxCell id="udtHZClJvaYIcNbsqlSm-21" style="edgeStyle=orthogonalEdgeStyle;rounded=0;orthogonalLoop=1;jettySize=auto;html=1;" edge="1" parent="1" source="udtHZClJvaYIcNbsqlSm-5" target="udtHZClJvaYIcNbsqlSm-20">
          <mxGeometry relative="1" as="geometry" />
        </mxCell>
        <mxCell id="udtHZClJvaYIcNbsqlSm-23" style="edgeStyle=orthogonalEdgeStyle;rounded=0;orthogonalLoop=1;jettySize=auto;html=1;entryX=0.5;entryY=1;entryDx=0;entryDy=0;" edge="1" parent="1" source="udtHZClJvaYIcNbsqlSm-5" target="udtHZClJvaYIcNbsqlSm-22">
          <mxGeometry relative="1" as="geometry">
            <Array as="points">
              <mxPoint x="25" y="900" />
              <mxPoint x="450" y="900" />
            </Array>
          </mxGeometry>
        </mxCell>
        <mxCell id="udtHZClJvaYIcNbsqlSm-5" value="Usuário Geral" style="shape=umlActor;verticalLabelPosition=bottom;verticalAlign=top;html=1;outlineConnect=0;" vertex="1" parent="1">
          <mxGeometry x="10" y="750" width="30" height="60" as="geometry" />
        </mxCell>
        <mxCell id="udtHZClJvaYIcNbsqlSm-24" style="edgeStyle=orthogonalEdgeStyle;rounded=0;orthogonalLoop=1;jettySize=auto;html=1;entryX=0.5;entryY=0;entryDx=0;entryDy=0;dashed=1;" edge="1" parent="1" source="udtHZClJvaYIcNbsqlSm-6" target="udtHZClJvaYIcNbsqlSm-22">
          <mxGeometry relative="1" as="geometry" />
        </mxCell>
        <mxCell id="udtHZClJvaYIcNbsqlSm-25" value="&amp;lt;&amp;lt;Include&amp;gt;&amp;gt;" style="edgeLabel;html=1;align=center;verticalAlign=middle;resizable=0;points=[];" vertex="1" connectable="0" parent="udtHZClJvaYIcNbsqlSm-24">
          <mxGeometry x="0.012" y="5" relative="1" as="geometry">
            <mxPoint as="offset" />
          </mxGeometry>
        </mxCell>
        <mxCell id="udtHZClJvaYIcNbsqlSm-6" value="Registrar Resultados&lt;span style=&quot;color: rgba(0, 0, 0, 0); font-family: monospace; font-size: 0px; text-align: start; text-wrap-mode: nowrap;&quot;&gt;%3CmxGraphModel%3E%3Croot%3E%3CmxCell%20id%3D%220%22%2F%3E%3CmxCell%20id%3D%221%22%20parent%3D%220%22%2F%3E%3CmxCell%20id%3D%222%22%20value%3D%22Administrador%20SGO%22%20style%3D%22shape%3DumlActor%3BverticalLabelPosition%3Dbottom%3BverticalAlign%3Dtop%3Bhtml%3D1%3BoutlineConnect%3D0%3B%22%20vertex%3D%221%22%20parent%3D%221%22%3E%3CmxGeometry%20x%3D%2210%22%20y%3D%22340%22%20width%3D%2230%22%20height%3D%2260%22%20as%3D%22geometry%22%2F%3E%3C%2FmxCell%3E%3C%2Froot%3E%3C%2FmxGraphModel%3E&lt;/span&gt;" style="ellipse;whiteSpace=wrap;html=1;" vertex="1" parent="1">
          <mxGeometry x="150" y="210" width="120" height="80" as="geometry" />
        </mxCell>
        <mxCell id="udtHZClJvaYIcNbsqlSm-7" value="Gerenciar Atletas Inscritos" style="ellipse;whiteSpace=wrap;html=1;" vertex="1" parent="1">
          <mxGeometry x="150" y="320" width="120" height="80" as="geometry" />
        </mxCell>
        <mxCell id="udtHZClJvaYIcNbsqlSm-8" value="Cadastrar Competição" style="ellipse;whiteSpace=wrap;html=1;" vertex="1" parent="1">
          <mxGeometry x="150" y="410" width="120" height="80" as="geometry" />
        </mxCell>
        <mxCell id="udtHZClJvaYIcNbsqlSm-10" value="Abrir Local" style="ellipse;whiteSpace=wrap;html=1;" vertex="1" parent="1">
          <mxGeometry x="150" y="505" width="120" height="80" as="geometry" />
        </mxCell>
        <mxCell id="udtHZClJvaYIcNbsqlSm-18" value="Inscrever Atleta em Competição" style="ellipse;whiteSpace=wrap;html=1;" vertex="1" parent="1">
          <mxGeometry x="150" y="630" width="120" height="80" as="geometry" />
        </mxCell>
        <mxCell id="udtHZClJvaYIcNbsqlSm-20" value="Consultar Resultados e Classificação" style="ellipse;whiteSpace=wrap;html=1;" vertex="1" parent="1">
          <mxGeometry x="150" y="740" width="120" height="80" as="geometry" />
        </mxCell>
        <mxCell id="udtHZClJvaYIcNbsqlSm-22" value="Gerar Relatório de Medalhas" style="ellipse;whiteSpace=wrap;html=1;" vertex="1" parent="1">
          <mxGeometry x="390" y="570" width="120" height="80" as="geometry" />
        </mxCell>
      </root>
    </mxGraphModel>
  </diagram>
</mxfile>
